<svg version="1.1" id="Layer_1" xmlns="http://www.w3.org/2000/svg" xmlns:xlink="http://www.w3.org/1999/xlink" x="0px" y="0px"
	 width="100%" viewBox="0 0 736 720" enable-background="new 0 0 736 720" xml:space="preserve">
<path fill="#000000" opacity="1.000000" stroke="none" 
	d="
M679.029663,356.996490 
	C659.518433,380.848877 634.361084,393.210358 604.335449,396.337616 
	C587.057678,398.137115 569.733704,397.564728 552.427124,397.290955 
	C547.567627,397.214111 546.185242,398.793793 546.196045,403.561920 
	C546.331360,463.060822 546.311707,522.560181 546.229126,582.059265 
	C546.223877,585.848145 546.805542,588.020020 551.329163,587.775940 
	C555.290344,587.562256 558.127014,589.773560 558.505188,593.903992 
	C558.889648,598.102661 561.129089,599.221313 564.865234,598.723694 
	C565.683899,598.614685 566.529907,598.700928 567.363098,598.711609 
	C574.135498,598.798340 576.320312,600.803711 576.911133,607.469116 
	C577.643738,615.734375 577.116394,616.324707 568.959900,616.324890 
	C538.960266,616.325439 508.959839,616.209839 478.961914,616.433228 
	C473.855286,616.471252 472.372192,614.936401 472.545746,609.915039 
	C472.886108,600.069824 473.943512,598.589233 483.861176,598.771545 
	C488.066650,598.848816 490.827454,598.470276 490.910950,593.136169 
	C490.967133,589.545471 494.083618,587.535461 497.588837,587.764465 
	C502.303101,588.072388 503.215515,585.752136 503.102631,581.766052 
	C502.929901,575.667847 503.057251,569.561157 503.057251,563.614380 
	C500.681580,563.069092 499.796051,564.249268 498.921844,565.143982 
	C479.354584,585.169617 454.723022,595.262146 427.855499,599.961243 
	C374.964722,609.211670 323.432983,604.738586 274.010681,582.504272 
	C260.864594,576.589966 248.416733,569.698181 238.379440,558.283325 
	C238.379440,567.188904 238.364838,576.094482 238.389572,585.000000 
	C238.395874,587.266602 239.968307,587.634644 241.806870,587.651306 
	C247.185211,587.700134 250.287064,590.176270 250.354294,595.796814 
	C250.380173,597.960815 251.611908,598.701904 253.572067,598.676880 
	C254.238312,598.668396 254.905045,598.696960 255.571548,598.708496 
	C267.316467,598.912659 269.227509,601.083862 268.356049,612.593994 
	C268.142731,615.411072 267.002808,616.480103 264.341644,616.316345 
	C263.511841,616.265198 262.675598,616.322510 261.842316,616.322571 
	C231.509384,616.324890 201.176392,616.351440 170.843582,616.288940 
	C167.801636,616.282715 163.922897,617.627014 163.715591,612.038818 
	C163.404037,603.640686 165.136536,599.659546 170.294174,598.817505 
	C171.272308,598.657837 172.293961,598.651917 173.286804,598.714233 
	C177.914886,599.004700 182.005371,599.270569 182.507156,592.559998 
	C182.783279,588.867004 186.550720,587.377747 190.193787,587.710815 
	C194.804565,588.132324 195.730743,586.000793 195.723526,581.839478 
	C195.620605,522.507080 195.616714,463.174408 195.729355,403.842041 
	C195.738449,399.052979 194.001663,397.297882 189.302124,397.340027 
	C175.645096,397.462585 161.968689,397.750763 148.330841,397.203156 
	C120.077003,396.068695 94.208954,388.206573 73.141083,368.285278 
	C53.034096,349.272583 41.689659,325.811310 39.745419,298.283844 
	C36.459900,251.766022 57.870964,218.099777 95.873596,193.573227 
	C118.343079,179.071640 143.250366,171.096695 169.433502,166.681458 
	C184.420181,164.154251 199.517471,163.131577 214.695511,163.727692 
	C223.839188,164.086792 232.940430,165.353287 242.117691,165.124619 
	C244.894470,165.055435 246.145981,167.041138 247.483841,169.006317 
	C254.047882,178.648117 260.618469,188.285858 267.261688,197.873093 
	C268.755707,200.029205 269.910858,202.500076 272.172882,204.066940 
	C274.362091,203.837509 275.784912,202.318619 277.428528,201.256165 
	C300.318970,186.459229 325.649445,179.454926 352.558441,176.546463 
	C390.984802,172.393127 427.724274,180.024353 464.134094,190.871811 
	C465.247498,191.203522 466.378906,191.475342 467.504517,191.765152 
	C479.694794,194.903763 479.704773,194.910065 486.769745,184.772507 
	C490.579285,179.306213 494.419952,173.859100 498.097412,168.304565 
	C499.404694,166.330017 500.860474,165.192932 503.314545,165.124741 
	C517.123047,164.741074 530.894897,162.822021 544.729370,163.725250 
	C589.605408,166.655075 631.246948,178.292496 665.944458,208.768265 
	C708.824707,246.431076 714.785583,311.986664 679.029663,356.996490 
M428.042297,556.518494 
	C434.205994,554.461731 440.321106,552.301086 446.142609,549.359009 
	C468.187042,538.218018 478.797302,520.067810 479.789337,495.636353 
	C480.835449,469.871490 469.765930,451.172577 447.723602,438.430450 
	C438.301300,432.983673 428.373566,428.713135 418.079651,425.310242 
	C393.411926,417.155640 367.793121,412.423828 342.973267,404.975159 
	C324.112579,399.314972 305.271423,397.654114 285.875092,398.228333 
	C273.554138,398.593079 261.213440,398.285461 248.881607,398.291443 
	C235.847397,398.297760 238.418381,397.900787 238.376801,408.535797 
	C238.254913,439.698212 238.323563,470.861420 238.363602,502.024292 
	C238.365860,503.781738 237.611374,505.921997 239.316101,507.210571 
	C248.466965,514.127625 256.524567,522.367981 266.179962,528.702209 
	C293.258911,546.466858 322.782135,557.149414 354.971710,560.877136 
	C379.362488,563.701599 403.436401,562.843811 428.042297,556.518494 
M485.397125,498.876434 
	C485.016876,516.379272 478.842468,531.284668 465.751312,543.179260 
	C449.458221,557.983093 429.400177,563.558838 408.345276,566.264526 
	C387.623566,568.927368 366.872437,568.566833 346.163177,565.417419 
	C312.816772,560.346191 282.216461,548.659180 255.195068,528.211487 
	C249.988022,524.271240 244.987640,520.057739 239.337921,515.526001 
	C237.507553,523.183350 238.786392,530.021362 238.308792,536.757019 
	C237.936386,542.009216 239.695694,546.531860 242.378479,550.881653 
	C247.303513,558.867004 253.890533,565.049438 262.080475,569.594116 
	C291.636688,585.995300 323.278290,595.211548 356.977509,597.838135 
	C384.571594,599.988892 411.855652,598.696533 438.667999,591.582886 
	C462.661865,585.216980 484.057892,574.330261 500.173767,554.688660 
	C502.197662,552.221985 503.085358,549.686890 503.079865,546.496155 
	C503.015228,509.004333 503.002014,471.512207 503.123413,434.020660 
	C503.136932,429.850769 501.740631,426.739288 498.930054,423.800354 
	C488.742584,413.147705 476.428162,405.657745 463.308533,399.295013 
	C461.423157,398.380676 459.473785,398.299835 457.468597,398.300140 
	C422.976044,398.305542 388.483459,398.305389 353.990906,398.312744 
	C351.796234,398.313232 349.566833,398.242157 347.020386,400.222443 
	C360.354858,403.512726 372.980743,406.421631 385.491577,409.761475 
	C406.548767,415.382843 427.834656,420.510956 447.125702,431.135010 
	C478.350220,448.331024 487.150818,468.967590 485.397125,498.876434 
M195.651428,297.500092 
	C195.653259,271.858032 195.654526,246.215958 195.657104,220.573898 
	C195.658493,206.911179 195.628784,206.667862 182.153275,208.370361 
	C158.082199,211.411499 135.352875,218.430923 115.200577,232.430908 
	C90.903191,249.310516 78.253693,271.639648 83.368866,301.948700 
	C88.076553,329.843323 113.449463,351.858887 141.680206,353.786255 
	C157.829285,354.888794 173.952240,354.241791 190.077621,354.722076 
	C194.528076,354.854614 195.786865,353.260315 195.735031,348.950775 
	C195.532822,332.135986 195.651566,315.317322 195.651428,297.500092 
M568.896362,209.721725 
	C563.965454,208.977112 559.045227,208.150589 554.101074,207.507477 
	C547.036804,206.588577 546.291077,207.284409 546.291016,214.360443 
	C546.290955,256.008759 546.296692,297.657074 546.301575,339.305389 
	C546.302063,343.136871 546.340393,346.968628 546.303894,350.799744 
	C546.281189,353.186981 547.170654,354.656708 549.766479,354.611938 
	C569.045959,354.279358 588.427002,356.129547 607.557983,352.462708 
	C638.276855,346.574738 659.764954,320.569977 659.610168,289.399811 
	C659.514771,270.191193 651.901611,254.196320 637.712646,241.370239 
	C618.331970,223.851242 595.073242,214.623734 568.896362,209.721725 
M314.118988,266.419891 
	C333.503540,295.246002 354.175507,323.203369 372.265320,353.288452 
	C397.919586,310.529785 428.264099,271.482544 455.545746,229.396408 
	C447.524353,227.746704 440.396027,226.263092 433.260284,224.816177 
	C402.460846,218.570953 371.548370,214.513962 340.182922,220.413437 
	C325.797943,223.119095 312.221069,227.795486 300.362122,236.777512 
	C297.249420,239.135071 296.434448,240.949661 298.994232,244.409668 
	C304.142853,251.368881 308.832306,258.667786 314.118988,266.419891 
M432.459625,309.916260 
	C422.459106,324.519989 412.458588,339.123749 402.425232,353.775452 
	C405.129944,355.600098 407.344727,355.053436 409.445801,355.058563 
	C437.910797,355.128021 466.376648,355.058380 494.840546,355.263550 
	C502.766998,355.320679 503.065948,355.416138 503.061829,347.542694 
	C503.046509,318.244751 503.122498,288.946228 502.959656,259.649078 
	C502.848877,239.719208 505.690887,245.460022 488.033203,238.371490 
	C483.964630,236.738220 481.806458,237.893509 479.448730,241.372910 
	C464.044586,264.105835 448.426575,286.693909 432.459625,309.916260 
M455.687958,223.449188 
	C457.334747,223.592606 459.212128,224.124130 460.349304,222.542557 
	C465.445190,215.455338 470.428406,208.287140 475.715546,200.774063 
	C467.391418,197.424133 459.496307,196.076981 451.903687,193.733032 
	C414.524597,182.193527 376.593262,177.259186 337.698944,184.401886 
	C317.008423,188.201569 297.682251,195.496674 279.971649,207.017319 
	C276.411011,209.333511 276.068909,211.290298 278.563965,214.522171 
	C281.308319,218.076920 283.646393,221.942215 286.281525,225.585358 
	C288.467468,228.607483 289.968384,232.231323 293.492249,234.445099 
	C299.340302,229.405304 305.589569,225.292923 312.569458,222.442383 
	C339.983307,211.246719 368.606201,210.291733 397.502106,213.160538 
	C416.852509,215.081650 435.876831,219.263458 455.687958,223.449188 
M243.565216,251.029144 
	C239.682327,259.294434 237.931854,267.859833 238.264709,277.114044 
	C238.749084,290.581085 239.029099,304.117950 238.203979,317.551819 
	C237.398529,330.665375 242.861633,341.012299 249.785522,351.199860 
	C251.810822,354.179810 254.252701,355.166199 257.735107,355.136902 
	C273.715698,355.002350 289.697937,355.078217 305.679413,355.021454 
	C307.252472,355.015839 308.976044,355.460449 310.761780,353.979370 
	C306.444153,351.509094 302.206055,349.336273 298.227905,346.761719 
	C285.562958,338.565369 275.400482,328.174377 271.905090,312.985291 
	C267.990143,295.973083 268.583740,279.005920 274.519012,262.439728 
	C275.461426,259.809418 275.215118,257.813812 273.578796,255.543579 
	C268.325012,248.254379 263.287140,240.809921 258.114929,233.461258 
	C257.405884,232.453857 256.954224,230.966843 254.948837,231.119308 
	C250.529358,236.985535 246.798828,243.419678 243.565216,251.029144 
M275.373566,287.823212 
	C274.845093,307.158844 278.929749,324.838287 295.428772,336.982361 
	C308.797272,346.822144 323.052826,355.124725 340.295135,355.166656 
	C340.663483,354.674194 341.031830,354.181763 341.400146,353.689331 
	C321.169861,324.454987 300.939545,295.220612 280.366241,265.490601 
	C276.910309,273.012817 276.488525,280.029449 275.373566,287.823212 
M241.359497,206.339203 
	C240.579636,205.032837 239.799759,203.726456 238.735016,201.942871 
	C237.311401,217.957581 238.061234,238.544449 240.357056,241.612259 
	C243.580109,236.649033 246.574448,231.703842 249.930099,227.017380 
	C251.509644,224.811386 251.221893,223.307968 249.767090,221.287079 
	C246.553802,216.823395 243.693130,212.125412 241.359497,206.339203 
M491.489288,408.962646 
	C495.146942,411.423126 497.806885,415.205719 502.441254,417.458130 
	C503.490753,411.589386 503.077423,406.168488 502.791229,400.761230 
	C502.722351,399.460022 501.904175,398.469666 500.584045,398.458557 
	C493.070679,398.395264 485.556519,398.427887 478.042603,398.427887 
	C477.985199,398.834259 477.927795,399.240662 477.870361,399.647034 
	C482.218567,402.612061 486.566772,405.577057 491.489288,408.962646 
M503.017090,222.500046 
	C502.749359,218.058960 503.690918,213.496704 502.177826,207.933990 
	C496.594818,216.339554 491.760895,223.617294 486.644684,231.320084 
	C492.092468,233.307693 496.727081,235.850815 502.214172,236.279617 
	C503.616882,231.776886 502.801575,227.597260 503.017090,222.500046 
M241.463348,350.355499 
	C240.808716,349.685120 240.076065,348.560974 239.132767,349.558350 
	C238.063644,350.688812 238.013397,352.390717 238.763351,353.653351 
	C239.776688,355.359497 241.340805,355.167633 242.791138,354.133484 
	C243.098831,352.757629 242.283218,351.877045 241.463348,350.355499 
z"/>
</svg>